<svg xmlns="http://www.w3.org/2000/svg" viewBox="0 0 128 128">
  <g data-name="Layer 5">
    <path fill="#00F6FF" d="M78.481 27.46h.016v.038h-.016zm15.305-3.414h10.247v10.247H93.786zm14.884 9.997h10.247V44.29H108.67zm-7.916 55.584h10.247v10.247h-10.247zm-7.25-19.917h10.247v10.247H93.504zm-9.834 13.5h10.247v10.247H83.67zm-2.708-66.542h10.247v10.247H80.962zM94.42 46.252h10.247v10.247H94.42zm-12.269 9.82h10.247v10.247H82.151zm-.68 22.679V68.498l-10.257.008v10.245h10.257z"/>
    <path fill="#00F6FF" d="M93.839 117.818a107.425 107.425 0 0 1-3.847-18.576H78.459V89H68.214V78.753H57.967V68.506h10.247V58.167H78.47v-10.2h10.243V37.718l-10.232-.011V27.5l-10.274-.006V17.245l10.259-.025V9.957a57.37 57.37 0 0 0-15.131-2.73c-25.129-1.3-46.65 14.84-45.957 37.1.091 2.938.605 7.265.593 10.092-.023 10.042-8.712 14.167-8.879 17.363-.275 5.248 5.89 3.609 8.064 11.033 2.76 9.425-1.2 20.173 11.648 19.509 5.125-.206 13.454-2.195 17.023 1.124 2.276 2.116 4.109 11.352 4.824 15.439a2.368 2.368 0 0 0 2.337 1.958h38.569a2.369 2.369 0 0 0 2.282-3.027ZM48.389 37.75H38.142V27.5h10.247Zm10.24-6.332h10.247v10.247H58.629ZM50.962 55.5V45.252h10.247V55.5Zm12.915 46.167H53.63V91.418h10.247Z"/>
  </g>
</svg>